<svg width="70" height="70" viewBox="0 0 70 70" fill="none" xmlns="http://www.w3.org/2000/svg">
<rect width="70" height="70" fill="#0C2A42"/>
<path d="M58.5732 36.2508C58.0654 39.8549 56.8377 43.3197 54.9634 46.4382C53.3451 49.2776 51.2336 51.805 48.7282 53.9012C51.79 55.6101 53.8247 58.6235 53.8247 62.0511V62.9975H47.4189V62.0511C47.4189 60.2995 45.3482 58.8174 42.9 58.8174H27.1809C24.7328 58.8174 22.6654 60.2995 22.6654 62.0511V62.9975H16.2694V62.0511C16.281 60.8469 16.5342 59.6574 17.0139 58.5532C17.4937 57.4489 18.1902 56.4525 19.0621 55.6232C18.7865 55.4753 18.5108 55.3143 18.2351 55.1533C15.5934 53.6055 13.5489 52.0445 12 50.3817L16.5943 42.5144L16.8864 43.0106C17.3262 43.7599 17.8232 44.4741 18.373 45.1467C19.4887 46.5302 21.1624 47.8808 23.3545 49.1657C25.5338 50.4661 27.9154 51.3914 30.4002 51.9032C30.5118 51.9295 30.6234 51.9492 30.7284 51.9689C31.793 52.1609 32.8725 52.2588 33.9543 52.2614C35.2684 52.2623 36.5781 52.1079 37.8561 51.8013L38.099 51.7356C40.105 51.2221 42.0024 50.3517 43.7008 49.1657C43.8714 49.0442 44.0289 48.9226 44.2094 48.7977C48.2717 45.61 50.9702 40.9937 51.7572 35.8861C52.0762 33.5202 51.8989 31.1137 51.2366 28.8204C50.5744 26.527 49.4418 24.3972 47.9111 22.5669C46.2053 20.5314 44.1519 18.8156 41.8466 17.4995C39.6512 16.2146 37.6527 15.4128 35.9101 15.1104C35.0543 14.9637 34.1889 14.8802 33.3209 14.8607H32.7466L37.3409 7C39.8818 7.69179 42.3123 8.7395 44.5606 10.1121C47.7995 11.9708 50.6874 14.3845 53.0929 17.2432C55.2763 19.8868 56.8937 22.9517 57.8447 26.2475C58.7511 29.5 58.9988 32.9011 58.5732 36.2508V36.2508Z" fill="white"/>
<path d="M49.1304 35.5278C48.465 39.8691 46.1704 43.7925 42.7148 46.4973C41.0908 47.7269 39.228 48.6027 37.246 49.0685C35.264 49.5342 33.2066 49.5797 31.206 49.2019C29.004 48.7859 26.893 47.9826 24.9709 46.8292C23.1047 45.7338 21.6892 44.5902 20.7244 43.3984C19.7629 42.2217 18.9881 40.9038 18.4272 39.491V39.491L21.8172 33.6941L21.9616 33.4476C22.2177 34.2959 22.5562 35.117 22.9723 35.8991C23.492 36.8618 24.1352 37.7523 24.8855 38.5479C25.7673 39.4928 26.7862 40.2993 27.9079 40.9402C29.3011 41.7485 30.8651 42.2158 32.4727 42.304C34.1058 42.4149 35.7406 42.1144 37.2278 41.4299C37.8658 41.141 38.4602 40.7638 38.9934 40.3093L26.0177 32.7115L28.9482 27.6967L41.9304 35.3241C42.0735 34.6239 42.1155 33.9067 42.0551 33.1946C41.9176 31.5599 41.3677 29.987 40.457 28.6234C39.5838 27.2754 38.4084 26.1501 37.0244 25.3372C35.9172 24.6726 34.7171 24.1775 33.4638 23.8682C32.4032 23.6069 31.3135 23.4832 30.2215 23.5002C29.3377 23.5231 28.4584 23.6331 27.5962 23.8288V23.8288L31.1272 17.7854C32.6298 17.58 34.1549 17.6066 35.6494 17.8643C37.1589 18.1228 38.8468 18.7997 40.7129 19.8952C42.6619 21.0023 44.3978 22.4491 45.8389 24.1673C47.1474 25.7293 48.1153 27.548 48.6805 29.5067C49.2456 31.4654 49.3955 33.5208 49.1205 35.541L49.1304 35.5278Z" fill="#FDA003"/>
</svg>
