<svg width="130" height="54" viewBox="0 0 130 54" fill="none" xmlns="http://www.w3.org/2000/svg">
<g clip-path="url(#clip0_701_10635)">
<path fill-rule="evenodd" clip-rule="evenodd" d="M94.3326 20.8087L101.156 0L107.935 20.6694L130 20.6314L112.128 33.3622L118.983 54L101.156 41.1995L83.3289 54L90.1845 33.3622L76.4925 23.6068L3.03552 23.6385L3.01623 41.2502H0L0.0192936 22.1508V20.6694H1.53062L77.4765 20.6377L92.8535 31.5897L93.741 32.2227L93.4001 33.2483L89.1041 46.1817L100.269 38.1672L101.156 37.5278L102.044 38.1672L113.208 46.1817L108.912 33.2483L108.571 32.2227L109.459 31.5897L120.655 23.6131L106.835 23.6385L105.735 23.6448L105.401 22.6129L101.156 9.66682L97.5032 20.8087H94.3326Z" fill="#E6332A"/>
<path fill-rule="evenodd" clip-rule="evenodd" d="M75.0636 29.3043V40.7564H70.864C69.5135 40.7564 67.8607 40.788 66.7352 40.041C66.1165 39.6145 65.6631 38.9941 65.449 38.2811C65.4061 38.0659 65.3547 37.8548 65.2946 37.648C65.2199 37.1684 65.1855 36.6835 65.1917 36.1983V29.3043H62.0726V32.286C59.9058 30.181 56.9879 28.9949 53.9436 28.9814C51.3538 29.0264 48.8497 29.902 46.8115 31.4753C44.7732 33.0486 43.3123 35.2337 42.6504 37.6987H45.6924C46.2603 36.0128 47.3476 34.5429 48.8033 33.4935C50.259 32.444 52.0108 31.8671 53.815 31.8429C58.5419 31.8429 62.5228 35.7109 62.5228 40.8576C62.5314 42.0044 62.3076 43.1413 61.8644 44.2018C61.4212 45.2623 60.7676 46.2252 59.9417 47.034C59.1159 47.8428 58.1344 48.4813 57.0548 48.9122C55.9752 49.343 54.8191 49.5576 53.6542 49.5432C48.3163 49.5432 45.2936 44.6623 45.2936 40.4968C45.2993 39.9509 45.3531 39.4066 45.4544 38.8698H39.229V29.3043H34.5343C31.8589 29.3043 28.5854 29.5639 25.9036 32.4696C23.7234 34.8752 23.3955 37.5341 23.3955 40.4082V49.2204H21.8198V46.2576C21.8198 41.1932 19.1123 39.8448 17.1894 39.4586C18.6106 38.4773 19.1187 37.4708 20.3664 34.8689L22.9388 29.3043H19.466L16.5334 35.7489C15.305 38.414 13.9223 38.8698 12.2181 38.8698H10.1151V29.3043H7.00879V52.0945H10.1151V41.7313H14.6812C18.5785 41.7313 18.7135 44.7573 18.7135 46.226V52.0818H26.5274V40.4335C26.5274 38.5343 26.6561 36.2996 28.0774 34.5777C30.1739 32.0455 33.1709 32.1657 36.1485 32.1657V52.0818H39.1904L39.229 41.7313H42.1102C42.9463 48.3088 48.0269 52.4047 53.95 52.4047C56.711 52.3925 59.3795 51.4242 61.4879 49.6694C63.5962 47.9146 65.0099 45.4854 65.4811 42.8075C67.2176 43.6494 69.1212 43.6178 71.0055 43.6178H75.0379V52.0818H78.1441V29.2916L75.0636 29.3043Z" fill="#143A84"/>
<path fill-rule="evenodd" clip-rule="evenodd" d="M87.2893 23.3031V24.8858H87.8231C88.8778 24.8858 89.9004 25.0947 90.537 26.0063C90.8259 26.4451 90.9759 26.9585 90.9679 27.4813C90.9714 27.8782 90.888 28.2711 90.7236 28.6335C90.1705 29.7983 89.2058 30.0579 88.0032 30.0579H85.3728V28.6651H88.0482C88.2912 28.7083 88.5417 28.6818 88.7698 28.5886C88.9979 28.4954 89.1939 28.3396 89.3344 28.1397C89.4434 27.9464 89.4967 27.7276 89.4888 27.5066C89.4992 27.2714 89.4459 27.0376 89.3344 26.8293C89.0257 26.3038 88.4726 26.2848 87.9196 26.2848H85.8037V21.9041H90.3055V23.3031H87.2893ZM92.4342 25.4429C92.0419 25.0343 91.8252 24.4921 91.8297 23.9299C91.8385 23.6332 91.9081 23.3414 92.0343 23.0719C92.1606 22.8024 92.3408 22.5607 92.5642 22.3615C92.7877 22.1622 93.0497 22.0095 93.3346 21.9124C93.6195 21.8153 93.9214 21.7758 94.2221 21.7964C94.5226 21.771 94.8252 21.8073 95.1108 21.9029C95.3963 21.9985 95.6586 22.1514 95.881 22.3519C96.1035 22.5525 96.2812 22.7962 96.403 23.0678C96.5249 23.3394 96.5881 23.633 96.5888 23.9299C96.5886 24.4775 96.3902 25.0071 96.0293 25.4239C96.3771 25.6493 96.6596 25.9597 96.849 26.3248C97.0384 26.6899 97.1282 27.0971 97.1097 27.5066C97.1097 29.1526 95.8235 30.1718 94.19 30.1718C93.8178 30.1969 93.4444 30.1467 93.0927 30.0244C92.741 29.902 92.4184 29.7101 92.1449 29.4604C91.8714 29.2107 91.6527 28.9086 91.5022 28.5726C91.3518 28.2366 91.2728 27.8738 91.2702 27.5066C91.2751 27.0989 91.38 26.6983 91.5759 26.339C91.7719 25.9796 92.0531 25.6722 92.3957 25.4429H92.4342ZM99.5857 23.3031V24.8858H100.12C101.174 24.8858 102.197 25.0947 102.833 26.0063C103.125 26.4438 103.275 26.9581 103.264 27.4813C103.271 27.8785 103.187 28.2721 103.02 28.6335C102.467 29.7983 101.502 30.0579 100.3 30.0579H97.6757V28.6651H100.325C100.568 28.7083 100.819 28.6818 101.047 28.5886C101.275 28.4954 101.471 28.3396 101.612 28.1397C101.718 27.9458 101.769 27.727 101.759 27.5066C101.769 27.2722 101.718 27.0392 101.612 26.8293C101.296 26.3038 100.743 26.2848 100.19 26.2848H98.0744V21.9041H102.576V23.3031H99.5857ZM94.2285 26.2152C93.9825 26.2432 93.7499 26.3406 93.5587 26.4957C93.3675 26.6507 93.2258 26.8568 93.1507 27.0892C93.0757 27.3216 93.0704 27.5704 93.1355 27.8056C93.2006 28.0409 93.3333 28.2527 93.5177 28.4155C93.7021 28.5783 93.9304 28.6852 94.175 28.7234C94.4197 28.7616 94.6704 28.7294 94.8969 28.6308C95.1234 28.5321 95.3162 28.3712 95.4521 28.1673C95.5879 27.9633 95.6611 27.7252 95.6627 27.4813C95.6639 27.3021 95.6264 27.1246 95.5527 26.9606C95.4791 26.7967 95.3709 26.65 95.2353 26.5303C95.0997 26.4107 94.9398 26.3207 94.7663 26.2663C94.5927 26.212 94.4095 26.1946 94.2285 26.2152ZM94.2285 24.8668C94.3945 24.8506 94.5521 24.7871 94.6818 24.684C94.8116 24.5808 94.9079 24.4426 94.9589 24.2863C95.0099 24.13 95.0133 23.9624 94.9688 23.8042C94.9243 23.646 94.8338 23.504 94.7084 23.3958C94.5829 23.2876 94.4281 23.2178 94.263 23.195C94.0978 23.1723 93.9295 23.1976 93.7787 23.2678C93.6279 23.338 93.5013 23.4501 93.4144 23.5902C93.3275 23.7303 93.2841 23.8924 93.2896 24.0565C93.2911 24.1684 93.3157 24.2789 93.3621 24.3812C93.4085 24.4835 93.4755 24.5753 93.5592 24.6512C93.6429 24.727 93.7415 24.7853 93.8488 24.8224C93.9561 24.8594 94.07 24.8745 94.1835 24.8668H94.2285Z" fill="#143A84"/>
</g>
<defs>
<clipPath id="clip0_701_10635">
<rect width="130" height="54" fill="white"/>
</clipPath>
</defs>
</svg>
