<svg width="474" height="487" viewBox="0 0 474 487" fill="none" xmlns="http://www.w3.org/2000/svg">
<path d="M267.234 470.656V378.059C279.684 374.946 291.745 369.889 302.25 362.886V388.953H415.078V276.125H354.384C354.773 273.012 354.773 269.511 354.773 266.398C354.773 232.939 339.989 201.814 315.867 180.415L434.531 61.3621L473.438 100.268V78.0918L434.531 39.1855L303.417 170.689C299.916 168.354 296.414 166.409 292.913 164.464L434.531 22.4559L473.438 61.3621V39.1855L434.531 0.279297L294.469 140.342C295.636 133.728 296.414 127.114 296.414 120.111C296.414 62.1402 249.337 15.0637 191.367 15.0637C133.397 15.0637 86.3203 62.1402 86.3203 120.111C86.3203 120.5 86.3203 120.889 86.3203 121.278C34.9641 141.12 0.726562 190.92 0.726562 246.556C0.726562 320.867 61.0312 381.171 134.953 381.171H169.969V486.218H185.531V381.171H240C243.891 381.171 247.781 380.782 251.672 380.393V486.218H473.438V470.656H267.234ZM399.516 291.687V373.39H317.812V350.825C334.542 335.262 346.603 315.031 352.05 291.687H399.516ZM240 365.609H185.531V330.204L259.064 293.632L252.061 279.626L185.531 312.697V159.406H169.969V234.884L103.439 201.425L96.4359 215.431L169.969 252.392V365.609H134.953C69.5906 365.609 16.2891 312.307 16.2891 246.945C16.2891 195.978 48.5813 150.846 96.825 134.506L102.661 132.561L102.272 126.725C102.272 124.779 101.883 122.445 101.883 120.5C101.883 71.0887 141.956 31.0152 191.367 31.0152C240.778 31.0152 280.852 71.0887 280.852 120.5C280.852 135.284 277.35 149.679 270.347 162.518L266.067 170.3L274.238 173.412C312.755 187.807 338.822 225.157 338.822 266.398C339.211 321.256 294.858 365.609 240 365.609Z" fill="white" fill-opacity="0.09"/>
</svg>
