<svg width="23" height="19" viewBox="0 0 23 19" fill="none" xmlns="http://www.w3.org/2000/svg">
<path d="M4.60547 2.18359L2.67188 1.05859C2.39062 0.894531 2.09766 0.894531 1.79297 1.05859C1.53516 1.22266 1.39453 1.46875 1.37109 1.79688C1.39453 2.125 1.54688 2.37109 1.82812 2.53516L3.76172 3.66016C4.04297 3.82422 4.32422 3.82422 4.60547 3.66016C4.88672 3.49609 5.03906 3.25 5.0625 2.92188C5.03906 2.59375 4.88672 2.34766 4.60547 2.18359ZM18.3164 3.76562C18.457 3.76562 18.5977 3.73047 18.7383 3.66016L20.6719 2.53516C21.0938 2.23047 21.1992 1.84375 20.9883 1.375C20.6836 0.953125 20.2969 0.847656 19.8281 1.05859L17.8945 2.18359C17.543 2.41797 17.4141 2.73438 17.5078 3.13281C17.625 3.53125 17.8945 3.74219 18.3164 3.76562ZM3.76172 10.3398L1.82812 11.4648C1.54688 11.6289 1.39453 11.875 1.37109 12.2031C1.39453 12.5312 1.53516 12.7773 1.79297 12.9414C2.09766 13.1055 2.39062 13.1055 2.67188 12.9414L4.60547 11.8164C5.00391 11.5117 5.10938 11.125 4.92188 10.6562C4.61719 10.2344 4.23047 10.1289 3.76172 10.3398ZM3.9375 7C3.89062 6.48437 3.60938 6.20312 3.09375 6.15625H0.84375C0.328125 6.20312 0.046875 6.48437 0 7C0.046875 7.51562 0.328125 7.79688 0.84375 7.84375H3.09375C3.60938 7.79688 3.89062 7.51562 3.9375 7ZM8.4375 16.2109C8.4375 16.4453 8.50781 16.6562 8.64844 16.8438L9.24609 17.7578C9.48047 18.0625 9.78516 18.2266 10.1602 18.25H12.3398C12.7148 18.2266 13.0195 18.0625 13.2539 17.7578L13.8516 16.8438C13.9688 16.6562 14.0391 16.4453 14.0625 16.2109V14.8398H8.4375V16.2109ZM20.6719 11.4648L18.7383 10.3398C18.457 10.1992 18.1758 10.1992 17.8945 10.3398C17.6133 10.5039 17.4727 10.75 17.4727 11.0781C17.4727 11.4062 17.6133 11.6523 17.8945 11.8164L19.8281 12.9414C20.2969 13.1523 20.6836 13.0469 20.9883 12.625C21.1992 12.1562 21.0938 11.7695 20.6719 11.4648ZM11.25 0.25C9.42188 0.320312 7.94531 0.941406 6.82031 2.11328C5.67188 3.30859 5.08594 4.73828 5.0625 6.40234C5.08594 7.99609 5.60156 9.35547 6.60938 10.4805C6.91406 10.832 7.24219 11.3008 7.59375 11.8867C7.96875 12.4961 8.25 13.0938 8.4375 13.6797C8.4375 13.7031 8.4375 13.7148 8.4375 13.7148H14.0625C14.0625 13.7148 14.0625 13.7031 14.0625 13.6797C14.25 13.0938 14.5312 12.4961 14.9062 11.8867C15.2578 11.3008 15.5859 10.832 15.8906 10.4805C16.8984 9.37891 17.4141 8.01953 17.4375 6.40234C17.3906 4.66797 16.7812 3.21484 15.6094 2.04297C14.4609 0.894531 13.0078 0.296875 11.25 0.25ZM14.625 9.39062C14.3438 9.71875 14.0508 10.1172 13.7461 10.5859C13.4414 11.0547 13.1602 11.5469 12.9023 12.0625H9.59766C9.33984 11.5469 9.05859 11.0547 8.75391 10.5859C8.44922 10.1172 8.15625 9.71875 7.875 9.39062C7.125 8.52344 6.75 7.52734 6.75 6.40234C6.77344 5.27734 7.17188 4.25781 7.94531 3.34375C8.71875 2.45313 9.80859 1.98437 11.2148 1.9375C12.5039 1.96094 13.5703 2.39453 14.4141 3.23828C15.2812 4.08203 15.7266 5.13672 15.75 6.40234C15.7266 7.52734 15.3516 8.52344 14.625 9.39062ZM21.6562 6.15625H19.4062C18.8906 6.20312 18.6094 6.48437 18.5625 7C18.6094 7.51562 18.8906 7.79688 19.4062 7.84375H21.6562C22.1719 7.79688 22.4531 7.51562 22.5 7C22.4531 6.48437 22.1719 6.20312 21.6562 6.15625ZM11.25 7.5625C11.7656 7.51562 12.0469 7.23438 12.0938 6.71875V3.90625C12.0469 3.39062 11.7656 3.10937 11.25 3.0625C10.7344 3.10937 10.4531 3.39062 10.4062 3.90625V6.71875C10.4531 7.23438 10.7344 7.51562 11.25 7.5625ZM11.2148 8.6875C10.9102 8.6875 10.6523 8.79297 10.4414 9.00391C10.2305 9.21484 10.125 9.48438 10.125 9.8125C10.125 10.1406 10.2305 10.4102 10.4414 10.6211C10.6523 10.832 10.9219 10.9375 11.25 10.9375C11.5781 10.9375 11.8477 10.832 12.0586 10.6211C12.2695 10.4102 12.375 10.1406 12.375 9.8125C12.375 9.48438 12.2695 9.21484 12.0586 9.00391C11.8242 8.79297 11.543 8.6875 11.2148 8.6875Z" fill="#BDBDBD"/>
</svg>
