<svg width="30" height="30" viewBox="0 0 30 30" fill="none" xmlns="http://www.w3.org/2000/svg">
<g clip-path="url(#clip0_463_19211)">
<path d="M20.0239 13.8496V16.3016H9.97412V13.8496H20.0239ZM20.3812 17.6219C20.4333 17.6219 20.484 17.6158 20.5326 17.6044C20.5812 17.6158 20.632 17.6219 20.6841 17.6219C21.0491 17.6219 21.3442 17.3257 21.3442 16.9617V13.1895C21.3442 12.8246 21.0489 12.5293 20.6841 12.5293H9.31396C8.94914 12.5293 8.65381 12.8246 8.65381 13.1895V16.9617C8.65381 17.3265 8.94914 17.6219 9.31396 17.6219H20.3812Z" fill="#E6332A" stroke="#E6332A" stroke-width="0.5"/>
<path d="M24.5029 22.2097H26.9549V28.1386H24.5029V22.2097ZM28.2752 21.7705C28.2752 21.7328 28.2721 21.6959 28.266 21.66C28.2721 21.6241 28.2752 21.5872 28.2752 21.5496C28.2752 21.1847 27.9799 20.8894 27.615 20.8894H23.8428C23.4779 20.8894 23.1826 21.1847 23.1826 21.5496V28.7988C23.1826 29.1636 23.4779 29.4589 23.8428 29.4589H27.615C27.9799 29.4589 28.2752 29.1636 28.2752 28.7988V21.7705Z" fill="#E6332A" stroke="#E6332A" stroke-width="0.5"/>
<path d="M6.76445 4.20762V3.77109V1.20117C6.76445 0.836343 6.46913 0.541016 6.1043 0.541016H2.33203C1.9672 0.541016 1.67188 0.836343 1.67188 1.20117V8.45039C1.67188 8.81522 1.9672 9.11055 2.33203 9.11055H6.1043C6.46913 9.11055 6.76445 8.81522 6.76445 8.45039V4.20762ZM5.44414 4.20762V7.79023H2.99219V1.86133H5.44414V3.77109V4.20762Z" fill="#E6332A" stroke="#E6332A" stroke-width="0.5"/>
<path d="M22.7917 22.2098H28.7993C29.1643 22.2098 29.4594 21.9143 29.4594 21.5491V20.185C29.4594 15.3471 25.5237 11.4114 20.6858 11.4114C20.321 11.4114 20.0256 11.7067 20.0256 12.0715V18.0791C20.0256 18.444 20.321 18.7393 20.6858 18.7393C21.4828 18.7393 22.1315 19.3884 22.1315 20.1856V21.5497C22.1315 21.9145 22.4268 22.2098 22.7917 22.2098ZM28.1391 20.1856V20.8895H23.4518V20.1862C23.4518 18.8877 22.5536 17.7959 21.3459 17.4992V12.761C25.1474 13.0961 28.1391 16.2982 28.1391 20.1856Z" fill="#E6332A" stroke="#E6332A" stroke-width="0.5"/>
<path d="M7.06284 7.83596H1.05522C0.690162 7.83596 0.395068 8.13152 0.395068 8.4967V9.86077C0.395068 14.6986 4.33083 18.6344 9.1687 18.6344C9.53353 18.6344 9.82886 18.3391 9.82886 17.9742V11.9666C9.82886 11.6018 9.53353 11.3065 9.1687 11.3065C8.37173 11.3065 7.723 10.6574 7.723 9.86018V8.49612C7.723 8.13129 7.42767 7.83596 7.06284 7.83596ZM1.71538 9.86018V9.15627H6.40269V9.85959C6.40269 11.1581 7.30094 12.2499 8.50854 12.5466V17.2848C4.70711 16.9497 1.71538 13.7475 1.71538 9.86018Z" fill="#E6332A" stroke="#E6332A" stroke-width="0.5"/>
</g>
<defs>
<clipPath id="clip0_463_19211">
<rect width="30" height="30" fill="white"/>
</clipPath>
</defs>
</svg>
