<svg width="23" height="17" viewBox="0 0 23 17" fill="none" xmlns="http://www.w3.org/2000/svg">
<path d="M20.25 7.125C19.6172 7.14844 19.0898 7.37109 18.668 7.79297C18.2461 8.21484 18.0234 8.74219 18 9.375H4.5C4.47656 8.74219 4.25391 8.21484 3.83203 7.79297C3.41016 7.37109 2.88281 7.14844 2.25 7.125C1.61719 7.14844 1.08984 7.37109 0.667969 7.79297C0.246094 8.21484 0.0234375 8.74219 0 9.375V15C0 15.3281 0.105469 15.5977 0.316406 15.8086C0.527344 16.0195 0.796875 16.125 1.125 16.125H3.375C3.70312 16.125 3.97266 16.0195 4.18359 15.8086C4.39453 15.5977 4.5 15.3281 4.5 15H18C18 15.3281 18.1055 15.5977 18.3164 15.8086C18.5273 16.0195 18.7969 16.125 19.125 16.125H21.375C21.7031 16.125 21.9727 16.0195 22.1836 15.8086C22.3945 15.5977 22.5 15.3281 22.5 15V9.375C22.4766 8.74219 22.2539 8.21484 21.832 7.79297C21.4102 7.37109 20.8828 7.14844 20.25 7.125ZM2.8125 14.4375H1.6875V9.375C1.71094 9.02344 1.89844 8.83594 2.25 8.8125C2.60156 8.83594 2.78906 9.02344 2.8125 9.375V14.4375ZM18 13.3125H4.5V11.0625H18V13.3125ZM20.8125 14.4375H19.6875V9.375C19.7109 9.02344 19.8984 8.83594 20.25 8.8125C20.6016 8.83594 20.7891 9.02344 20.8125 9.375V14.4375ZM3.09375 6C3.60938 5.95313 3.89062 5.67188 3.9375 5.15625V4.59375C3.96094 3.86719 4.20703 3.26953 4.67578 2.80078C5.14453 2.33203 5.74219 2.08594 6.46875 2.0625H16.0312C16.7578 2.08594 17.3555 2.33203 17.8242 2.80078C18.293 3.26953 18.5391 3.86719 18.5625 4.59375V5.15625C18.6094 5.67188 18.8906 5.95313 19.4062 6C19.9219 5.95313 20.2031 5.67188 20.25 5.15625V4.59375C20.2266 3.39844 19.8164 2.40234 19.0195 1.60547C18.2227 0.808594 17.2266 0.398438 16.0312 0.375H6.46875C5.27344 0.398438 4.27734 0.808594 3.48047 1.60547C2.68359 2.40234 2.27344 3.39844 2.25 4.59375V5.15625C2.29688 5.67188 2.57812 5.95313 3.09375 6Z" fill="#BDBDBD"/>
</svg>
