<svg width="36" height="33" viewBox="0 0 36 33" fill="none" xmlns="http://www.w3.org/2000/svg">
<path fill-rule="evenodd" clip-rule="evenodd" d="M18.0248 32.9539L36 14.5778H35.9564V6.12156L29.9684 0L29.9684 0.0445784L21.6942 0.044579V0.034304L17.9775 3.83396L14.3058 0.0804012V0.0906762L6.03164 0.0906756L6.03164 0.0460971L0.0436069 6.16766L0.0436069 14.6239H0L17.9752 33L18.0225 32.9516L18.0248 32.9539ZM18.0243 30.4453L34.2209 13.8875V6.85646L29.2931 1.81878L22.403 1.81878L17.9775 6.34306L13.597 1.86488L6.7069 1.86488L1.77911 6.90256V13.9336L17.9753 30.4909L18.0221 30.443L18.0243 30.4453Z" fill="#FDA003"/>
<path d="M8.58769 6.71069L9.32429 7.52467L1.26245 15.1491L0.525851 14.3351L8.58769 6.71069Z" fill="#FDA003"/>
<path d="M13.4942 19.2967L14.2308 20.1107L9.9773 24.1335L9.2407 23.3195L13.4942 19.2967Z" fill="#FDA003"/>
<path d="M25.2343 14.6372V13.5283H35.4304V14.6372H25.2343Z" fill="#FDA003"/>
<path d="M12.9095 8.27222L12.5553 9.3203L8.60438 7.92467L8.95863 6.8766L12.9095 8.27222Z" fill="#FDA003"/>
<path d="M13.2925 12.4579L12.2136 12.5719L11.7841 8.3212L12.863 8.20726L13.2925 12.4579Z" fill="#FDA003"/>
<path d="M14.1603 20.2201L13.0813 20.334L12.6518 16.0833L13.7308 15.9694L14.1603 20.2201Z" fill="#FDA003"/>
<path d="M26.102 14.5517H25.0174V9.98146H26.102V14.5517Z" fill="#FDA003"/>
<path d="M25.8851 5.76616H24.8004V0.665326H25.8851V5.76616Z" fill="#FDA003"/>
<path d="M7.22844 6.47733L8.06195 5.76772L9.11623 7.06195L8.28272 7.77155L7.22844 6.47733Z" fill="#FDA003"/>
<path d="M4.12013 2.75199L4.95364 2.04239L6.51337 3.9571L5.67985 4.6667L4.12013 2.75199Z" fill="#FDA003"/>
</svg>
