<svg width="18" height="17" viewBox="0 0 18 17" fill="none" xmlns="http://www.w3.org/2000/svg">
<path d="M2.8125 4.875C2.8125 4.54688 2.91797 4.27734 3.12891 4.06641C3.33984 3.85547 3.60938 3.75 3.9375 3.75H7.3125C7.64062 3.75 7.91016 3.85547 8.12109 4.06641C8.33203 4.27734 8.4375 4.54688 8.4375 4.875V6H9.5625V4.875C9.5625 4.54688 9.66797 4.27734 9.87891 4.06641C10.0898 3.85547 10.3594 3.75 10.6875 3.75H14.0625C14.3906 3.75 14.6602 3.85547 14.8711 4.06641C15.082 4.27734 15.1875 4.54688 15.1875 4.875V6H16.875V2.625C16.8516 1.99219 16.6289 1.46484 16.207 1.04297C15.7852 0.621094 15.2578 0.398438 14.625 0.375H3.375C2.74219 0.398438 2.21484 0.621094 1.79297 1.04297C1.37109 1.46484 1.14844 1.99219 1.125 2.625V6H2.8125V4.875ZM15.75 7.125H2.25C1.61719 7.14844 1.08984 7.37109 0.667969 7.79297C0.246094 8.21484 0.0234375 8.74219 0 9.375V15.2812C0.046875 15.7969 0.316406 16.0781 0.808594 16.125C1.04297 16.125 1.24219 16.043 1.40625 15.8789C1.59375 15.7148 1.6875 15.5156 1.6875 15.2812V13.875H16.3125V15.2812C16.3594 15.7969 16.6406 16.0781 17.1562 16.125C17.6719 16.0781 17.9531 15.7969 18 15.2812V9.375C17.9766 8.74219 17.7539 8.21484 17.332 7.79297C16.9102 7.37109 16.3828 7.14844 15.75 7.125ZM16.3125 12.1875H1.6875V9.375C1.71094 9.02344 1.89844 8.83594 2.25 8.8125H15.75C16.1016 8.83594 16.2891 9.02344 16.3125 9.375V12.1875Z" fill="#BDBDBD"/>
</svg>
