<svg width="30" height="30" viewBox="0 0 30 30" fill="none" xmlns="http://www.w3.org/2000/svg">
<path fill-rule="evenodd" clip-rule="evenodd" d="M24.9507 22.0149C24.6078 22.3577 24.0506 22.3577 23.7506 22.0149L8.23591 6.50013C7.89304 6.15726 7.89304 5.6001 8.23591 5.30009L11.2789 2.25715C11.6217 1.91428 12.1789 1.91428 12.4789 2.25715L27.9936 17.7719C28.3365 18.1147 28.3365 18.6719 27.9936 18.9719L24.9507 22.0149Z" stroke="#E6332A" stroke-width="2"/>
<path d="M8.83594 2.85718L9.73596 3.7572" stroke="#E6332A" stroke-width="2"/>
<path d="M26.4936 20.4719L27.6937 21.7148L24.0507 25.3578L13.079 17.429L10.936 19.5719" stroke="#E6332A" stroke-width="2"/>
<path fill-rule="evenodd" clip-rule="evenodd" d="M4.67962 28.2723C4.2939 28.658 3.52245 28.5723 2.96529 28.0151L2.49385 27.5437C1.93669 26.9865 1.85097 26.2579 2.2367 25.8293L9.30833 18.7577C9.69405 18.372 10.4655 18.4577 11.0227 19.0148L11.4941 19.4863C12.0513 20.0434 12.137 20.772 11.7513 21.2006L4.67962 28.2723Z" stroke="#E6332A" stroke-width="2"/>
</svg>
