<svg width="20" height="19" viewBox="0 0 20 19" fill="none" xmlns="http://www.w3.org/2000/svg">
<path d="M18.5977 6.29688L13.4297 5.52344L11.1445 0.882812C10.9102 0.460938 10.5586 0.25 10.0898 0.25C9.69141 0.25 9.36328 0.460938 9.10547 0.882812L6.82031 5.52344L1.65234 6.29688C1.18359 6.39063 0.890625 6.63672 0.773438 7.03516C0.632812 7.45703 0.726562 7.84375 1.05469 8.19531L4.78125 11.7812L3.90234 16.9492C3.83203 17.3242 3.91406 17.6289 4.14844 17.8633C4.38281 18.1211 4.66406 18.25 4.99219 18.25C5.17969 18.25 5.35547 18.2031 5.51953 18.1094L10.125 15.7188L14.7305 18.1094C14.8945 18.2031 15.0703 18.25 15.2578 18.25C15.5859 18.25 15.8672 18.1211 16.1016 17.8633C16.3359 17.6289 16.418 17.3242 16.3477 16.9492L15.4688 11.8164L19.1953 8.23047C19.5234 7.85547 19.6172 7.45703 19.4766 7.03516C19.3594 6.63672 19.0664 6.39063 18.5977 6.29688ZM13.7109 11.5352L14.5195 16.1055L10.3711 13.9258C10.207 13.8555 10.043 13.8555 9.87891 13.9258L5.73047 16.1055L6.53906 11.5352C6.53906 11.3242 6.48047 11.1484 6.36328 11.0078L3.05859 7.77344L7.62891 7.10547C7.83984 7.08203 7.98047 6.98828 8.05078 6.82422L10.125 2.64062L12.1992 6.78906C12.2695 6.97656 12.4102 7.08203 12.6211 7.10547L17.2266 7.77344L13.8867 11.0078C13.7461 11.1484 13.6875 11.3242 13.7109 11.5352Z" fill="#BDBDBD"/>
</svg>
